<svg xmlns="http://www.w3.org/2000/svg" viewBox="0 0 512 512" style="enable-background:new 0 0 512 512" xml:space="preserve"><path style="fill:#2ba5f7" d="M441.251 205.224c-.431.181-.862.363-1.288.553-24.352 10.904-38.598 36.656-34.785 63.182 6.55 45.492-9.87 88.393-39.883 117.825-24.494 24.026-58.053 39.088-95.56 39.262l-8.888.044c-44.684 31.498-48.634 78.438-48.634 78.438-77.152 2.354-96.224-62.113-96.224-62.113 42.29-8.824 73.727-42.67 83.265-54.017.568-.686 1.072-1.288 1.48-1.801.589-.718 1.006-1.258 1.261-1.578.178-.238.272-.36.272-.36-95.62-11.558-134.52-63.144-149.888-109.658-13.972-42.305-8.47-80.419-8.47-80.419 22.081 13.467 45.397 17.905 68.217 17.982 42.042.126 82.397-14.52 110.115-14.656 42.749-.202 83.581 35.07 83.581 35.07.041-.086.072-.168.117-.246 17.4-38.447 37.29-50.755 53.79-52.775 19.682-2.408 34.527 9.839 34.527 9.839 21.473 21.282 46.995 15.428 46.995 15.428z"/><path style="fill:#0f8dd3" d="M310.548 319.341c18.226 39.001-42.777 58.9-111.293 69.058.568-.686 1.072-1.288 1.48-1.801.589-.718 1.006-1.258 1.261-1.578.178-.238.272-.36.272-.36-95.62-11.558-134.52-63.144-149.888-109.658 19.983-3.157 222.018-33.037 258.168 44.339zM372.923 180.391s-44.388 11.454-38.839 75.39l-28.145-23.048c17.4-38.447 48.073-55.709 66.984-52.342z"/><path style="fill:#0f8dd3" d="M365.295 386.785c-24.494 24.026-58.053 39.088-95.56 39.262l-8.888.044c-44.684 31.498-48.634 78.438-48.634 78.438-77.152 2.354-96.224-62.113-96.224-62.113 44.837-9.361 77.47-46.838 84.745-55.818l15.826-1.672c0 .001 75.501 29.908 148.735 1.859z"/><path style="fill:#fff" d="M288.856 261.21a8.552 8.552 0 0 1-5.611-2.09c-10.095-8.718-38.154-26.66-60.644-26.66h-.199c-7.206.034-17.317 1.752-28.415 3.884-4.641.891-9.131-2.141-10.044-6.778a8.595 8.595 0 0 1 6.81-10.1c11.928-2.291 22.953-4.149 31.567-4.191h.28c29.662 0 61.92 22.24 71.877 30.838a8.594 8.594 0 0 1-5.621 15.097zm-104.924-31.656h.011-.011z"/><path style="fill:#9ad14b" d="M462.682 96.802c10.345 26.521-2.772 56.422-29.294 66.768a51.29 51.29 0 0 1-3.54-18.72c0-20.621 12.453-40.097 32.834-48.048zM370.184 8.589c21.504 18.674 23.806 51.233 5.132 72.736-11.743-10.196-17.757-24.539-17.757-38.963a51.372 51.372 0 0 1 12.625-33.773zM401.597 119.589c-21.538 18.617-54.097 16.257-72.725-5.281 9.749-8.42 21.744-12.556 33.693-12.556 14.458 0 28.836 6.048 39.032 17.837z"/><path style="fill:#333" d="M469.731 139.705c6.453-14.712 6.792-31.057.952-46.024a8.591 8.591 0 0 0-11.128-4.882c-14.967 5.839-26.763 17.158-33.218 31.87a60.882 60.882 0 0 0-2.942 8.285 227.498 227.498 0 0 0-38.071-46.463c8.15-11.362 12.059-25.08 11.061-39.205-1.132-16.026-8.436-30.651-20.569-41.183a8.59 8.59 0 0 0-12.121.856c-13.05 15.033-17.288 34.755-13.182 52.823a225.21 225.21 0 0 0-29.475-15.471 8.593 8.593 0 0 0-6.837 15.767 208.233 208.233 0 0 1 58.243 37.896 61.314 61.314 0 0 0-5.499-.659c-16.025-1.165-31.54 3.983-43.693 14.491a8.594 8.594 0 0 0-.88 12.12c11.879 13.737 28.661 20.78 45.538 20.78 12.313 0 24.675-3.758 35.215-11.394a210.356 210.356 0 0 1 31.222 69.767c-7.448.115-20.975-1.651-33.073-13.749a8.662 8.662 0 0 0-.575-.525c-.826-.687-20.524-16.787-46.118-10.961-19.562 4.452-36.526 20.162-50.524 46.752-14.77-10.801-46.333-30.527-79.866-30.527-13.021 0-28.414 2.958-44.711 6.088-38.549 7.405-86.525 16.623-128.004-8.955a8.593 8.593 0 0 0-13.009 6.046c-.449 3.012-10.494 74.438 33.323 132.21 25.671 33.848 64.259 55.615 114.848 64.829-13.324 13.753-39 35.959-70.916 42.473a8.59 8.59 0 0 0-6.532 10.819c.213.732 5.391 18.129 20.786 35.188 13.805 15.299 38.677 33.234 79.404 33.233 1.195 0 2.409-.016 3.631-.047a8.593 8.593 0 0 0 8.338-7.828c.037-.419 4.113-41.462 42.907-69.899h6.07a145.212 145.212 0 0 0 109.562-49.885 145.205 145.205 0 0 0 34.306-115.392c-2.826-20.309 6.811-40.042 23.893-50.47a208.302 208.302 0 0 1 1.684 43.436 8.594 8.594 0 0 0 17.148 1.132c2.161-32.775-2.888-64.872-14.007-94.421 11.925-6.319 21.318-16.38 26.819-28.921zM371.151 22.25c4.704 6.444 7.519 14.092 8.094 22.248.576 8.156-1.135 16.123-4.888 23.165-4.704-6.444-7.519-14.092-8.094-22.247-.577-8.156 1.136-16.124 4.888-23.166zm26.026 249.068a128.031 128.031 0 0 1-30.248 101.74 128.032 128.032 0 0 1-96.6 43.984h-8.638c-1.39-.066-13.789-.766-25.56-4.894a8.589 8.589 0 0 0-10.951 5.264c-1.571 4.478.787 9.38 5.264 10.952 3.563 1.25 7.148 2.233 10.549 3.01-24.379 23.426-32.734 50.335-35.483 63.381-48.34-1.566-69.102-32.379-76.444-47.635 40.254-11.942 69.227-43.273 78.294-54.087 1.772.076 3.98.136 6.558.136 17.06 0 49.922-2.636 74.451-20.731a8.593 8.593 0 0 0-10.201-13.829c-27.876 20.565-71.419 17.226-73.758 17.028-.802-.101-1.592-.214-2.387-.322a48.592 48.592 0 0 0 2.998-2.742 8.591 8.591 0 0 0 0-12.151 8.591 8.591 0 0 0-12.151 0c-3.899 3.899-10.759 8.095-15.038 10.475-9.528-2.235-18.536-4.98-27.011-8.241 3.524-1.688 7.111-3.77 10.497-6.345a8.592 8.592 0 1 0-10.397-13.681c-8.027 6.101-18.076 8.56-22.688 9.419-8.852-5.008-16.95-10.724-24.271-17.149 7.691-1.259 16.614-3.65 25.101-8.152a8.593 8.593 0 0 0-8.055-15.181c-12.07 6.404-25.847 7.398-32.384 7.471a135.345 135.345 0 0 1-3.034-3.825c-5.155-6.779-9.464-13.814-13.085-20.923 4.046.387 8.62.662 13.461.662 9.182 0 19.313-.989 28.571-4.075a8.594 8.594 0 0 0-5.434-16.304c-15.661 5.22-35.659 2.823-44.461 1.348-3.101-8.774-5.304-17.421-6.844-25.606 10.769 3.425 27.226 6.951 49.378 6.951a8.592 8.592 0 0 0 0-17.184c-27.464 0-44.834-5.954-51.996-9.042a196.742 196.742 0 0 1-.631-22.625c43.766 20.836 90.22 11.911 128.177 4.619 15.469-2.972 30.082-5.78 41.467-5.78 38.684 0 76.89 32.795 77.266 33.121.032.027.068.049.099.077.041.036.078.073.119.108l27.983 22.8a8.558 8.558 0 0 0 5.422 1.932 8.593 8.593 0 0 0 5.432-15.254l-22.736-18.526c11.715-23.321 25.616-37.41 40.431-40.869 16.078-3.755 29.462 5.823 31.279 7.201 8.903 8.774 18.417 13.5 26.954 15.953-14.727 14.761-22.273 35.901-19.265 57.521zm-54.635-156.024c7.046-3.734 15.015-5.425 23.164-4.837 8.15.592 15.789 3.419 22.222 8.132-14.459 7.632-32.182 6.347-45.386-3.295zm96.349 35.739c-1.166-7.893-.1-15.972 3.185-23.46 3.285-7.487 8.506-13.744 15.104-18.232 1.166 7.893.1 15.972-3.185 23.46-3.286 7.489-8.507 13.745-15.104 18.232z"/><circle style="fill:#333" cx="367.222" cy="221.463" r="8.592"/><circle style="fill:#fff" cx="158.178" cy="235.646" r="8.592"/></svg>